<?xml version="1.0" encoding="UTF-8" standalone="no"?>
<!DOCTYPE svg PUBLIC "-//W3C//DTD SVG 1.1//EN" "http://www.w3.org/Graphics/SVG/1.1/DTD/svg11.dtd">
<svg width="100%" height="100%" viewBox="0 0 100 100" version="1.1" xmlns="http://www.w3.org/2000/svg" xmlns:xlink="http://www.w3.org/1999/xlink" xml:space="preserve" xmlns:serif="http://www.serif.com/" style="fill-rule:evenodd;clip-rule:evenodd;stroke-linejoin:round;stroke-miterlimit:2;">
    <g>
        <g transform="matrix(0.180629,0,0,0.180629,-11.2054,-12.2687)">
            <path d="M336.078,75.64C263.908,75.64 254.858,75.946 226.515,77.239C198.229,78.53 178.913,83.022 162.009,89.591C144.535,96.382 129.715,105.468 114.941,120.241C100.168,135.015 91.082,149.834 84.291,167.309C77.722,184.212 73.229,203.529 71.938,231.814C70.645,260.158 70.34,269.207 70.34,341.377C70.34,413.547 70.645,422.597 71.938,450.94C73.229,479.226 77.722,498.542 84.291,515.445C91.082,532.92 100.168,547.739 114.941,562.513C129.715,577.286 144.535,586.373 162.009,593.163C178.913,599.732 198.229,604.225 226.515,605.516C254.858,606.809 263.908,607.114 336.078,607.114C408.247,607.114 417.297,606.809 445.64,605.516C473.926,604.225 493.243,599.732 510.146,593.163C527.621,586.373 542.44,577.286 557.213,562.513C571.987,547.739 581.073,532.92 587.864,515.445C594.433,498.542 598.925,479.226 600.216,450.94C601.509,422.597 601.815,413.547 601.815,341.377C601.815,269.207 601.509,260.158 600.216,231.814C598.925,203.529 594.433,184.212 587.864,167.309C581.073,149.834 571.987,135.015 557.213,120.241C542.44,105.468 527.621,96.382 510.146,89.591C493.243,83.022 473.926,78.53 445.64,77.239C417.297,75.946 408.247,75.64 336.078,75.64ZM336.078,123.52C407.033,123.52 415.437,123.791 443.458,125.069C469.367,126.252 483.438,130.581 492.802,134.22C505.206,139.04 514.057,144.799 523.357,154.098C532.656,163.397 538.414,172.249 543.235,184.653C546.874,194.017 551.203,208.088 552.385,233.996C553.664,262.018 553.934,270.422 553.934,341.377C553.934,412.332 553.664,420.736 552.385,448.758C551.203,474.667 546.874,488.737 543.235,498.102C538.414,510.505 532.656,519.357 523.357,528.656C514.057,537.955 505.206,543.714 492.802,548.534C483.438,552.174 469.367,556.503 443.458,557.685C415.441,558.963 407.038,559.233 336.078,559.233C265.118,559.233 256.713,558.963 228.697,557.685C202.788,556.503 188.717,552.174 179.353,548.534C166.95,543.714 158.097,537.955 148.799,528.656C139.5,519.357 133.741,510.505 128.92,498.102C125.281,488.737 120.952,474.667 119.77,448.758C118.492,420.736 118.221,412.332 118.221,341.377C118.221,270.422 118.492,262.018 119.77,233.997C120.952,208.088 125.281,194.017 128.92,184.653C133.741,172.249 139.499,163.397 148.798,154.098C158.097,144.799 166.95,139.04 179.353,134.22C188.717,130.581 202.788,126.252 228.697,125.069C256.717,123.791 265.122,123.52 336.078,123.52Z" style="fill-rule:nonzero;stroke:black;stroke-width:5.54px;"/>
        </g>
        <g transform="matrix(0.180629,0,0,0.180629,-11.2054,-12.2687)">
            <path d="M336.078,429.956C287.157,429.956 247.498,390.298 247.498,341.377C247.498,292.456 287.157,252.798 336.078,252.798C384.998,252.798 424.657,292.456 424.657,341.377C424.657,390.298 384.998,429.956 336.078,429.956ZM336.078,204.917C260.713,204.917 199.618,266.013 199.618,341.377C199.618,416.742 260.713,477.837 336.078,477.837C411.442,477.837 472.538,416.742 472.538,341.377C472.538,266.013 411.442,204.917 336.078,204.917Z" style="fill-rule:nonzero;stroke:black;stroke-width:5.54px;"/>
        </g>
        <g transform="matrix(0.180629,0,0,0.180629,-11.2054,-12.2687)">
            <path d="M509.817,199.526C509.817,217.137 495.54,231.415 477.929,231.415C460.317,231.415 446.04,217.137 446.04,199.526C446.04,181.915 460.317,167.637 477.929,167.637C495.54,167.637 509.817,181.915 509.817,199.526Z" style="fill-rule:nonzero;stroke:black;stroke-width:5.54px;"/>
        </g>
    </g>
</svg>
