<svg id="Logo" xmlns="http://www.w3.org/2000/svg" xmlns:xlink="http://www.w3.org/1999/xlink" viewBox="0 0 672.2 677.3"><defs><linearGradient id="linear-gradient" x1="82.72" y1="625.29" x2="532.26" y2="116.75" gradientUnits="userSpaceOnUse"><stop offset="0" stop-color="#ed6950"/><stop offset="1" stop-color="#e94884"/></linearGradient></defs><rect width="672.2" height="677.35" rx="137.5" style="fill:url(#linear-gradient)"/><path d="M336.1,122.9c70.9,0,79.3.2,107.4,1.5,25.9,1.2,39.9,5.5,49.3,9.2A87,87,0,0,1,543.2,184c3.7,9.4,8,23.4,9.2,49.3,1.3,28.1,1.5,36.5,1.5,107.4s-.2,79.4-1.5,107.4c-1.2,25.9-5.5,40-9.2,49.3A81.3,81.3,0,0,1,523.4,528a82.3,82.3,0,0,1-30.6,19.9c-9.4,3.6-23.4,7.9-49.3,9.1-28.1,1.3-36.5,1.6-107.4,1.6s-79.4-.3-107.4-1.6c-25.9-1.2-40-5.5-49.3-9.1a88,88,0,0,1-50.5-50.5c-3.6-9.3-7.9-23.4-9.1-49.3-1.3-28-1.6-36.4-1.6-107.4s.3-79.3,1.6-107.4c1.2-25.9,5.5-39.9,9.1-49.3a82.3,82.3,0,0,1,19.9-30.6,81.3,81.3,0,0,1,30.6-19.8c9.3-3.7,23.4-8,49.3-9.2,28-1.3,36.4-1.5,107.4-1.5m0-47.9c-72.2,0-81.2.3-109.6,1.6S178.9,82.4,162,88.9a130.3,130.3,0,0,0-47.1,30.7,131.3,131.3,0,0,0-30.6,47.1c-6.6,16.9-11.1,36.2-12.4,64.5s-1.6,37.4-1.6,109.5.3,81.2,1.6,109.6,5.8,47.6,12.4,64.5A135.2,135.2,0,0,0,162,592.5c16.9,6.6,36.2,11.1,64.5,12.4s37.4,1.6,109.6,1.6,81.2-.3,109.5-1.6,47.6-5.8,64.5-12.4a135.7,135.7,0,0,0,77.8-77.7c6.5-16.9,11-36.2,12.3-64.5s1.6-37.4,1.6-109.6-.3-81.2-1.6-109.5-5.8-47.6-12.3-64.5a136.3,136.3,0,0,0-77.8-77.8c-16.9-6.5-36.2-11-64.5-12.3S408.2,75,336.1,75Z" style="fill:#fff"/><path d="M336.1,204.3A136.5,136.5,0,1,0,472.5,340.7,136.5,136.5,0,0,0,336.1,204.3Zm0,225a88.6,88.6,0,1,1,88.6-88.6A88.6,88.6,0,0,1,336.1,429.3Z" style="fill:#fff"/><circle cx="477.9" cy="198.9" r="31.9" style="fill:#fff"/></svg>